<?xml version="1.0" encoding="UTF-8"?>
<svg width="19px" height="12px" viewBox="0 0 19 12" version="1.1" xmlns="http://www.w3.org/2000/svg" xmlns:xlink="http://www.w3.org/1999/xlink">
    <!-- Generator: Sketch 52.1 (67048) - http://www.bohemiancoding.com/sketch -->
    <title>Group</title>
    <desc>Created with Sketch.</desc>
    <defs>
        <polygon id="path-1" points="10.9664113 0.181191111 0.0649705741 0.181191111 0.0649705741 11.3242935 10.9664113 11.3242935"></polygon>
        <polygon id="path-3" points="10.9018107 0.181191111 0.00036999188 0.181191111 0.00036999188 11.3242935 10.9018107 11.3242935"></polygon>
    </defs>
    <g id="Page-1" stroke="none" stroke-width="1" fill="none" fill-rule="evenodd">
        <g id="icons-44ab95b7" transform="translate(-35.000000, 0.000000)">
            <g id="иконки" transform="translate(35.533333, 0.000000)">
                <g id="MC">
                    <g id="2-copy-4">
                        <g id="Page-1">
                            <g id="Group">
                                <g id="Group-3" transform="translate(6.659854, 0.573998)">
                                    <g id="Fill-1-Clipped">
                                        <g>
                                            <mask id="mask-2" fill="white">
                                                <use xlink:href="#path-1"></use>
                                            </mask>
                                            <g id="path-1"></g>
                                            <path d="M10.9664113,5.75266679 C10.9664113,8.82989582 8.52594489,11.3242935 5.51569095,11.3242935 C2.50543702,11.3242935 0.0649705741,8.82989582 0.0649705741,5.75266679 C0.0649705741,2.67543775 2.50543702,0.181040119 5.51569095,0.181040119 C8.52594489,0.181040119 10.9664113,2.67543775 10.9664113,5.75266679 Z" id="Fill-1" fill="#FC9F3A" mask="url(#mask-2)"></path>
                                        </g>
                                    </g>
                                </g>
                                <g id="Group-6" transform="translate(0.000000, 0.573998)">
                                    <g id="Fill-4-Clipped">
                                        <g>
                                            <mask id="mask-4" fill="white">
                                                <use xlink:href="#path-3"></use>
                                            </mask>
                                            <g id="path-3"></g>
                                            <path d="M10.9018107,5.75266679 C10.9018107,8.82989582 8.46134431,11.3242935 5.45109037,11.3242935 C2.44083643,11.3242935 0.00036999188,8.82989582 0.00036999188,5.75266679 C0.00036999188,2.67543775 2.44083643,0.181040119 5.45109037,0.181040119 C8.46134431,0.181040119 10.9018107,2.67543775 10.9018107,5.75266679 Z" id="Fill-4" fill="#F14840" mask="url(#mask-4)"></path>
                                        </g>
                                    </g>
                                </g>
                                <path d="M8.81313259,1.9405568 C7.5411005,2.96051176 6.72489841,4.54593399 6.72489841,6.32613665 C6.72489841,8.10709428 7.5411005,9.69327147 8.81313259,10.7132264 C10.0851647,9.69327147 10.9013668,8.10709428 10.9013668,6.32613665 C10.9013668,4.54593399 10.0851647,2.96051176 8.81313259,1.9405568" id="Fill-7" fill="#F46B3E"></path>
                            </g>
                        </g>
                    </g>
                </g>
            </g>
        </g>
    </g>
</svg>