<?xml version="1.0" encoding="UTF-8"?>
<svg width="25px" height="10px" viewBox="0 0 25 10" version="1.1" xmlns="http://www.w3.org/2000/svg" xmlns:xlink="http://www.w3.org/1999/xlink">
    <!-- Generator: Sketch 52.1 (67048) - http://www.bohemiancoding.com/sketch -->
    <title>Layer_2-2</title>
    <desc>Created with Sketch.</desc>
    <defs>
        <linearGradient x1="0%" y1="50.0522466%" x2="100.140585%" y2="50.0522466%" id="linearGradient-1">
            <stop stop-color="#5BAAE3" offset="0%"></stop>
            <stop stop-color="#58A1DC" offset="33%"></stop>
            <stop stop-color="#4F89C8" offset="87%"></stop>
            <stop stop-color="#4C82C3" offset="100%"></stop>
        </linearGradient>
    </defs>
    <g id="Page-1" stroke="none" stroke-width="1" fill="none" fill-rule="evenodd">
        <g id="icons-44ab95b7" transform="translate(-64.000000, -1.000000)">
            <g id="иконки" transform="translate(64.133333, 1.733333)">
                <g id="MIR_EN">
                    <g id="2-copy-9">
                        <g id="Page-1">
                            <g id="Layer_2">
                                <g id="Layer_2-2">
                                    <path d="M5.49781111,5.12363704 L5.30547845,5.12363704 L4.1805138,1.13817407 C3.98954436,0.463107729 3.38410239,-0.00117307032 2.69628624,-4.48663908e-15 L0,-2.21785202e-06 L0,8.67162595 L2.69991516,8.67162595 L2.69991516,3.54798889 L2.90313458,3.54798889 L4.44542483,8.67162595 L6.37600933,8.67162595 L7.91104174,3.54798889 L8.1033744,3.54798889 L8.1033744,8.67162595 L10.8032895,8.67162595 L10.8032895,-2.21785202e-06 L8.10700334,-4.66157129e-15 C7.41918717,-0.00117307032 6.8137452,0.463107729 6.62277576,1.13817407 L5.49781111,5.12363704 Z" id="Shape" fill="#3CA85B"></path>
                                    <path d="M21.4106175,0 L15.4337892,0 C15.8055457,2.05139759 17.554076,3.54183868 19.5961584,3.54798889 L24.2411738,3.54798889 C24.4113389,2.67944824 24.1926225,1.77866459 23.6448584,1.09206423 C23.0970943,0.405463873 22.2776198,0.00491673031 21.4106175,0 Z" id="Shape" fill="url(#linearGradient-1)"></path>
                                    <polygon id="Rectangle-path" fill="#3CA85B" points="11.9609145 0 14.6608297 0 14.6608297 8.67162595 11.9609145 8.67162595"></polygon>
                                    <path d="M24.3137521,8.67533333 L22.3976833,5.73906667 C23.2139329,5.43807661 23.8555865,4.77982476 24.1468219,3.94468148 L15.8220835,3.94468148 L15.8220835,8.67162595 L18.507483,8.67162595 L18.507483,5.93185185 L19.7993778,5.93185185 L21.214656,8.6938704 L24.3137521,8.67533333 Z" id="Shape" fill="#3CA85B"></path>
                                </g>
                            </g>
                        </g>
                    </g>
                </g>
            </g>
        </g>
    </g>
</svg>