<?xml version="1.0" encoding="UTF-8"?>
<svg width="26px" height="9px" viewBox="0 0 26 9" version="1.1" xmlns="http://www.w3.org/2000/svg" xmlns:xlink="http://www.w3.org/1999/xlink">
    <!-- Generator: Sketch 52.1 (67048) - http://www.bohemiancoding.com/sketch -->
    <title>visa-icon</title>
    <desc>Created with Sketch.</desc>
    <defs>
        <linearGradient x1="0%" y1="49.9090374%" x2="100.088002%" y2="49.9090374%" id="linearGradient-1">
            <stop stop-color="#363C61" offset="0%"></stop>
            <stop stop-color="#4D64A9" offset="100%"></stop>
        </linearGradient>
    </defs>
    <g id="Page-1" stroke="none" stroke-width="1" fill="none" fill-rule="evenodd">
        <g id="visa-icon" transform="translate(0.000000, -2.000000)">
            <rect id="Rectangle" x="0" y="0" width="25" height="13"></rect>
            <path d="M9.54821307,2.40808115 L6.25775195,10.4976441 L4.1130764,10.4976441 L2.49722496,4.15797744 C2.47818196,3.84330592 2.29694036,3.56181389 2.0198143,3.41649596 C1.38771539,3.08483942 0.716403729,2.83568027 0.0220343379,2.67501448 L0.0661030136,2.37842189 L3.5108045,2.37842189 C3.98464761,2.40502751 4.37453329,2.76453927 4.44359147,3.23854041 L5.29558587,7.78382189 L7.40353752,2.37842189 L9.54821307,2.40808115 Z M17.9212615,7.84314041 C17.9212615,5.75957744 15.0641423,5.61869596 15.0861767,4.71408856 C15.0861767,4.43232559 15.3579335,4.12831819 15.9455158,4.05417004 C16.6310474,3.98883053 17.3213254,4.11180584 17.9432958,4.41008115 L18.2958452,2.734333 C17.6897416,2.50535494 17.0480432,2.38734173 16.4008921,2.3858367 C14.4031122,2.3858367 12.9929146,3.46098485 12.978225,4.99585152 C12.978225,6.13031819 13.9844598,6.76799226 14.7483168,7.14614781 C15.5121739,7.52430337 15.7986202,7.78382189 15.7986202,8.12490337 C15.7986202,8.65877004 15.1669692,8.86638485 14.5867317,8.86638485 C13.8590311,8.89792763 13.1355602,8.73959576 12.4861248,8.40666633 L12.1188858,10.141733 C12.8374907,10.424496 13.6024792,10.5678841 14.3737331,10.5643774 C16.5037191,10.5643774 17.8918823,9.50405893 17.8992271,7.85797004 L17.9212615,7.84314041 Z M23.1874682,10.5124737 L25.0603869,10.5124737 L23.4445355,2.40808115 L21.7185124,2.40808115 C21.3265725,2.44543262 20.9915109,2.70852104 20.8591732,3.0828293 L17.8184346,10.4976441 L19.9410758,10.4976441 L20.367073,9.14814781 L22.9671248,9.14814781 L23.1874682,10.5124737 Z M20.9473105,7.46498485 L22.0123035,4.49905893 L22.629265,7.46498485 L20.9473105,7.46498485 Z M12.4273666,2.40808115 L10.7527569,10.4976441 L8.72559779,10.4976441 L10.4075522,2.40808115 L12.4273666,2.40808115 Z" id="Shape" fill="url(#linearGradient-1)" fill-rule="nonzero"></path>
        </g>
    </g>
</svg>